<svg enable-background="new 0 0 512 512" width="100" height="100" viewBox="0 0 512 512" xmlns="http://www.w3.org/2000/svg"><path d="m494.142 80.275-68.076-70.974c-3.503-3.651-7.876-6.336-12.637-7.857v90.686h87.733c-1.378-4.396-3.754-8.449-7.02-11.855z"/><path d="m398.413 122.148c-8.286 0-15.011-6.715-15.011-15.011 0-.07.01-.14.02-.22-.01-.07-.02-.14-.02-.22v-106.697h-248.52c-16.652 0-30.202 13.55-30.202 30.212v69.276h149.041c28.51 0 51.716 23.194 51.716 51.716v99.269c0 28.51-23.207 51.716-51.716 51.716h-149.04v179.609c0 16.652 13.55 30.202 30.202 30.202h337.464c16.652 0 30.202-13.55 30.202-30.202v-359.65z"/><path d="m238.287 124.74h-190.187c-21.315 0-38.648 17.333-38.648 38.648v74.184c0 21.305 17.333 38.648 38.648 38.648h190.187c21.305 0 38.648-17.343 38.648-38.648v-74.184c0-21.315-17.342-38.648-38.648-38.648zm-136.012 107.926c-4.729 3.938-10.933 5.905-18.608 5.905-6.65 0-12.441-1.37-17.376-4.112-4.935-2.741-7.401-5.825-7.401-9.254 0-1.918.701-3.838 2.107-5.757 1.403-1.918 3.032-2.879 4.884-2.879 1.028 0 2.175.416 3.443 1.247 1.268.833 2.433 1.752 3.496 2.763 1.062 1.012 2.553 1.932 4.472 2.763 1.918.833 3.941 1.247 6.066 1.247 2.673 0 5.003-.565 6.991-1.696 1.986-1.131 2.981-2.827 2.981-5.089s-1.115-4.249-3.341-5.962c-2.229-1.712-4.936-3.272-8.122-4.678-3.188-1.404-6.393-2.981-9.613-4.729-3.222-1.747-5.946-4.231-8.173-7.453-2.229-3.221-3.341-7.059-3.341-11.514 0-7.266 2.57-12.697 7.711-16.296s11.343-5.398 18.608-5.398c1.781 0 3.65.106 5.604.318s4.147.618 6.58 1.219 4.421 1.571 5.963 2.913c1.542 1.343 2.314 2.967 2.314 4.872 0 1.812-.565 3.692-1.696 5.642s-2.69 2.925-4.678 2.925c-.822 0-2.57-.65-5.243-1.953-2.673-1.301-5.621-1.953-8.842-1.953-3.427 0-5.997.601-7.711 1.799-1.714 1.2-2.57 2.657-2.57 4.37 0 1.577.806 3.017 2.416 4.318 1.61 1.303 3.615 2.416 6.015 3.341 2.398.925 5.021 2.126 7.865 3.599 2.843 1.475 5.465 3.084 7.865 4.832 2.398 1.748 4.402 4.199 6.014 7.351 1.609 3.153 2.416 6.752 2.416 10.796-.002 7.064-2.366 12.566-7.096 16.503zm69.397-62.567-19.122 62.714c-.55 1.714-1.8 3.033-3.753 3.959s-4.199 1.388-6.734 1.388c-2.537 0-4.78-.462-6.734-1.388-1.953-.926-3.204-2.245-3.753-3.959l-19.226-62.714c-.138-.547-.205-.926-.205-1.131 0-1.781 1.113-3.323 3.341-4.626 2.227-1.301 4.539-1.953 6.94-1.953 2.946 0 4.693.995 5.243 2.981l14.394 52.742 14.29-52.742c.548-1.987 2.296-2.981 5.243-2.981 2.399 0 4.712.652 6.941 1.953 2.227 1.303 3.341 2.845 3.341 4.626 0 .206-.069.584-.206 1.131zm55.825 43.799c0 8.363-2.298 14.497-6.889 18.403-4.592 3.907-10.728 5.86-18.403 5.86-7.609 0-13.709-1.953-18.3-5.86-4.593-3.907-6.889-10.04-6.889-18.403v-27.246c0-8.361 2.278-14.496 6.837-18.403 4.558-3.907 10.503-5.86 17.838-5.86 7.538 0 13.726 1.817 18.557 5.449 4.832 3.634 7.248 8.636 7.248 15.011 0 2.948-.616 4.953-1.851 6.014-1.233 1.064-3.289 1.593-6.168 1.593-5.278 0-7.952-1.609-8.02-4.833 0-.959-.035-1.764-.103-2.416-.069-.651-.274-1.456-.616-2.417-.344-.959-.823-1.712-1.439-2.262-.616-.547-1.526-1.044-2.725-1.491-1.2-.444-2.622-.667-4.267-.667-6.168 0-9.253 3.427-9.253 10.28v27.246c.002 6.855 3.051 10.281 9.153 10.281 6.168 0 9.253-3.427 9.253-10.28v-3.496h-6.066c-1.508 0-2.69-.599-3.547-1.799-.858-1.199-1.285-2.656-1.285-4.369 0-1.576.444-2.998 1.336-4.267.891-1.268 2.056-1.902 3.496-1.902h17.272c1.507 0 2.69.498 3.548 1.491.856.995 1.285 2.177 1.285 3.547v10.796z"/></svg>